<svg xmlns="http://www.w3.org/2000/svg">
  <symbol id="mail-send" viewBox="0 0 24 24">
    <path fill="none" d="M0 0h24v24H0z"/>
    <path d="M22 20.007a1 1 0 0 1-.992.993H2.992A.993.993 0 0 1 2 20.007V19h18V7.3l-8 7.2-10-9V4a1 1 0 0 1 1-1h18a1 1 0 0 1 1 1v16.007zM4.434 5L12 11.81 19.566 5H4.434zM0 15h8v2H0v-2zm0-5h5v2H0v-2z"/>
  </symbol>

  <symbol id="map-pin" viewBox="0 0 24 24">
    <path fill="none" d="M0 0h24v24H0z"/>
    <path d="M12 20.9l4.95-4.95a7 7 0 1 0-9.9 0L12 20.9zm0 2.828l-6.364-6.364a9 9 0 1 1 12.728 0L12 23.728zM12 13a2 2 0 1 0 0-4 2 2 0 0 0 0 4zm0 2a4 4 0 1 1 0-8 4 4 0 0 1 0 8z"/>
  </symbol>

  <symbol id="phone" viewBox="0 0 24 24">
    <path fill="none" d="M0 0h24v24H0z"/>
    <path d="M9.366 10.682a10.556 10.556 0 0 0 3.952 3.952l.884-1.238a1 1 0 0 1 1.294-.296 11.422 11.422 0 0 0 4.583 1.364 1 1 0 0 1 .921.997v4.462a1 1 0 0 1-.898.995c-.53.055-1.064.082-1.602.082C9.94 21 3 14.06 3 5.5c0-.538.027-1.072.082-1.602A1 1 0 0 1 4.077 3h4.462a1 1 0 0 1 .997.921A11.422 11.422 0 0 0 10.9 8.504a1 1 0 0 1-.296 1.294l-1.238.884zm-2.522-.657l1.9-1.357A13.41 13.41 0 0 1 7.647 5H5.01c-.006.166-.009.333-.009.5C5 12.956 11.044 19 18.5 19c.167 0 .334-.003.5-.01v-2.637a13.41 13.41 0 0 1-3.668-1.097l-1.357 1.9a12.442 12.442 0 0 1-1.588-.75l-.058-.033a12.556 12.556 0 0 1-4.702-4.702l-.033-.058a12.442 12.442 0 0 1-.75-1.588z"/>
  </symbol>
  <symbol id="at-line" viewBox="0 0 24 24">
    <path fill="none" d="M0 0h24v24H0z"/>
    <path d="M20 12a8 8 0 1 0-3.562 6.657l1.11 1.664A9.953 9.953 0 0 1 12 22C6.477 22 2 17.523 2 12S6.477 2 12 2s10 4.477 10 10v1.5a3.5 3.5 0 0 1-6.396 1.966A5 5 0 1 1 15 8H17v5.5a1.5 1.5 0 0 0 3 0V12zm-8-3a3 3 0 1 0 0 6 3 3 0 0 0 0-6z"/>
  </symbol>
  <symbol id="double-check" viewBox="0 0 24 24">
    <path fill="none" d="M0 0h24v24H0z"/>
    <path d="M11.602 13.76l1.412 1.412 8.466-8.466 1.414 1.414-9.88 9.88-6.364-6.364 1.414-1.414 2.125 2.125 1.413 1.412zm.002-2.828l4.952-4.953 1.41 1.41-4.952 4.953-1.41-1.41zm-2.827 5.655L7.364 18 1 11.636l1.414-1.414 1.413 1.413-.001.001 4.951 4.951z"/>
  </symbol>
</svg>