<?xml version="1.0" encoding="UTF-8" standalone="no"?>
<svg
   xmlns:svg="http://www.w3.org/2000/svg"
   xmlns="http://www.w3.org/2000/svg"
   width="128"
   height="128">
  <path
   id="icon"
   fill="currentColor"
   d="m 79.242448,111.24245 c 0,1.6849 -1.371428,3.04326 -3.043265,3.04326 H 51.813878 c -1.684898,0 -3.043265,-1.37143 -3.043265,-3.04326 0,-1.6849 1.371428,-3.04327 3.043265,-3.04327 h 24.385305 c 1.671837,-0.0131 3.043265,1.35837 3.043265,3.04327 z m -3.056326,4.57143 H 51.813878 c -2.011428,0 -3.552653,1.93306 -2.88653,4.03591 0.404897,1.26694 1.684897,2.05062 3.017142,2.05062 h 0.05224 c 1.763265,0 3.369796,0.99265 4.153469,2.57306 l 0.02612,0.0653 C 57.234286,126.65469 59.402449,128 61.779592,128 h 4.440816 c 2.377143,0 4.545306,-1.34531 5.603265,-3.46123 l 0.02612,-0.0653 c 0.783673,-1.58041 2.403265,-2.57306 4.153469,-2.57306 h 0.05224 c 1.332245,0 2.612245,-0.78368 3.017142,-2.05062 0.679184,-2.10285 -0.875102,-4.03591 -2.88653,-4.03591 z M 64,18.285716 c 1.684898,0 3.043265,-1.371429 3.043265,-3.043265 V 3.0432676 C 67.043265,1.3583697 65.671837,2.4e-6 64,2.4e-6 c -1.684898,0 -3.043265,1.3714285 -3.043265,3.0432652 V 15.22939 c 0,1.684897 1.358367,3.056326 3.043265,3.056326 z M 31.673471,29.884083 c 0.587755,0.600816 1.371428,0.888163 2.155102,0.888163 0.783673,0 1.554285,-0.300408 2.155102,-0.888163 1.188571,-1.188571 1.188571,-3.121633 0,-4.310204 l -8.620408,-8.620408 c -1.188572,-1.188571 -3.121633,-1.188571 -4.310204,0 -1.188572,1.188572 -1.188572,3.121633 0,4.310204 z m -7.288163,28.016325 c 0,-1.684898 -1.371429,-3.043265 -3.043266,-3.043265 H 9.1428592 c -1.6848979,0 -3.0432652,1.371429 -3.0432652,3.043265 0,1.684898 1.3714285,3.043266 3.0432652,3.043266 H 21.328981 c 1.684898,0.01306 3.056327,-1.358368 3.056327,-3.043266 z m 7.288163,28.016326 -8.620408,8.620408 c -1.188572,1.188571 -1.188572,3.121632 0,4.310204 0.600816,0.600816 1.371428,0.888163 2.155102,0.888163 0.783673,0 1.554285,-0.300408 2.155102,-0.888163 l 8.620408,-8.620408 c 1.188571,-1.188572 1.188571,-3.121633 0,-4.310204 -1.188572,-1.188572 -3.121633,-1.188572 -4.310204,0 z m 64.653058,0 c -1.188571,-1.188572 -3.121632,-1.188572 -4.310204,0 -1.188571,1.188571 -1.188571,3.121632 0,4.310204 l 8.620405,8.620408 c 0.60082,0.600816 1.37143,0.888163 2.15511,0.888163 0.78367,0 1.55428,-0.300408 2.1551,-0.888163 1.18857,-1.188572 1.18857,-3.121633 0,-4.310204 z M 118.85714,54.857143 h -12.18612 c -1.6849,0 -3.04327,1.371429 -3.04327,3.043265 0,1.684898 1.37143,3.043266 3.04327,3.043266 h 12.18612 c 1.6849,0 3.04327,-1.371429 3.04327,-3.043266 0,-1.671836 -1.35837,-3.043265 -3.04327,-3.043265 z M 94.171427,30.785307 c 0.783674,0 1.554286,-0.300408 2.155102,-0.888163 l 8.620411,-8.620408 c 1.18857,-1.188571 1.18857,-3.121632 0,-4.310204 -1.18857,-1.188571 -3.12164,-1.188571 -4.31021,0 l -8.620405,8.620408 c -1.188571,1.188572 -1.188571,3.121633 0,4.310204 0.587756,0.587755 1.371429,0.888163 2.155102,0.888163 z M 79.242448,103.61469 c 0,1.6849 -1.371428,3.04327 -3.043265,3.04327 H 51.813878 c -1.684898,0 -3.043265,-1.37143 -3.043265,-3.04327 0,-1.61959 1.266939,-2.93877 2.873469,-3.0302 C 49.737143,83.435101 32.000001,79.621224 32.000001,59.428572 32.000001,41.756736 46.328164,27.428573 64,27.428573 c 17.671836,0 31.999999,14.328163 31.999999,31.999999 0,20.192652 -17.737142,24.006529 -19.63102,41.155918 1.593469,0.0914 2.873469,1.41061 2.873469,3.0302 z M 56.973061,35.970613 c -0.470204,-1.162449 -1.802448,-1.737142 -2.977959,-1.253877 -7.784489,3.160816 -13.688162,9.900408 -15.791019,18.050611 -0.31347,1.227755 0.417959,2.468572 1.645714,2.782041 0.195918,0.05224 0.378775,0.07837 0.574694,0.07837 1.018775,0 1.946122,-0.679183 2.207347,-1.71102 1.737142,-6.752653 6.635101,-12.342857 13.087346,-14.955101 1.162449,-0.483266 1.724082,-1.815511 1.253877,-2.991021 z" />
</svg>