<?xml version="1.0" encoding="UTF-8" standalone="no"?>
<svg
   xmlns="http://www.w3.org/2000/svg"
   xmlns:xlink="http://www.w3.org/1999/xlink"
   viewBox="0 0 18 18">
  <defs
     id="defs29">
    <linearGradient
       id="linearGradient4609">
      <stop
         id="stop4605"
         offset="0"
         style="stop-color:#ffffff;stop-opacity:0.56470591" />
      <stop
         style="stop-color:#ffffff;stop-opacity:0.53333336"
         offset="0.18566176"
         id="stop4615" />
      <stop
         id="stop4607"
         offset="1"
         style="stop-color:#ffffff;stop-opacity:0" />
    </linearGradient>
    <radialGradient
       gradientUnits="userSpaceOnUse"
       r="8.5"
       fy="9"
       fx="9"
       cy="9"
       cx="9"
       id="radialGradient4611"
       xlink:href="#linearGradient4609" />
  </defs>
  <symbol id="icon">
  <circle
     r="8.5"
     cy="9"
     cx="9"
     id="path4563"
     fill="currentColor"/>
  <circle
     r="8.5"
     cy="9"
     cx="9"
     id="path4563-2"
     style="opacity:1;fill:url(#radialGradient4611);fill-opacity:1;stroke:none;stroke-width:1.99999988;stroke-linejoin:round;stroke-miterlimit:4;stroke-dasharray:none;stroke-opacity:1" />
  <path
     d="M 14.209,15.717 A 8.5001041,8.5001041 0 0 1 3.791,2.283 L 3.877,2.218 a 8.5000033,8.5000033 0 0 1 10.332,13.5"
     id="path4"
     style="fill:url(#84d4b995-4159-4d4d-aee0-170d911ffad6)" />
  <circle
     cx="4.3769999"
     cy="8.6809998"
     r="2.7320001"
     id="circle8"
     style="fill:url(#cc4eaa77-f606-4858-82be-b6f017f8e0e6)" />
  <circle
     cx="10.135"
     cy="13.67"
     r="1.775"
     id="circle12"
     style="fill:url(#21835eba-54d1-4895-bec7-c7debbea7644)" />
  <circle
     cx="14.18"
     cy="9.2679996"
     r="1.885"
     id="circle16"
     style="fill:#f2f2f2" />
  <g
     style="fill:#ffffff;fill-opacity:0.70588237"
     id="g4580">
    <path
       style="fill:#ffffff;fill-opacity:0.70588237"
       id="path6"
       d="M 2.481,10.645 A 18.877,18.877 0 0 0 1.645,13.269 9.46,9.46 0 0 0 2.267,14.191 8.126,8.126 0 0 0 2.822,14.838 17.828,17.828 0 0 1 3.905,11.37 2.72,2.72 0 0 1 2.481,10.645 Z M 3.46,6.11 A 11.947,11.947 0 0 1 2.771,3.165 8.4,8.4 0 0 0 1.671,4.623 13.23,13.23 0 0 0 2.239,6.985 2.731,2.731 0 0 1 3.46,6.11 Z" />
    <path
       style="fill:#ffffff;fill-opacity:0.70588237"
       id="path10"
       d="M 8.36,13.67 A 1.764,1.764 0 0 1 8.9,12.4 11.978,11.978 0 0 1 6.375,10.543 2.716,2.716 0 0 1 4.883,11.364 11.821,11.821 0 0 0 6.33,12.651 12.384,12.384 0 0 0 8.376,13.9 1.9,1.9 0 0 1 8.36,13.67 Z m 6.298,0.212 a 11.928,11.928 0 0 1 -2.754,-0.321 c 0,0.036 0.006,0.072 0.006,0.109 a 1.767,1.767 0 0 1 -0.506,1.24 13.883,13.883 0 0 0 3.412,0.243 8.479,8.479 0 0 0 1.151,-1.343 12.188,12.188 0 0 1 -1.309,0.072 z" />
    <path
       style="fill:#ffffff;fill-opacity:0.70588237"
       id="path14"
       d="M 9.653,5.1 A 13.556,13.556 0 0 1 15.6,3.65 8.4,8.4 0 0 0 14.114,2.205 14.443,14.443 0 0 0 9.42,3.313 C 9.092,3.453 8.774,3.613 8.461,3.78 A 16.964,16.964 0 0 1 6.484,0.868 8.645,8.645 0 0 0 5.4,1.287 17.744,17.744 0 0 0 7.457,4.38 12.382,12.382 0 0 0 5.343,6.128 2.731,2.731 0 0 1 6.689,7.228 11.932,11.932 0 0 1 8.615,5.692 27.632,27.632 0 0 0 12.315,8.927 1.844,1.844 0 0 1 12.927,7.939 26.781,26.781 0 0 1 9.653,5.1 Z" />
    <path
       style="fill:#ffffff;fill-opacity:0.70588237"
       id="path18"
       d="M 17.347,10.539 A 19.22,19.22 0 0 1 17.026,10.37 L 17,10.354 16.7,10.194 16.645,10.164 16.378,10.015 16.312,9.979 16,9.8 a 1.8,1.8 0 0 1 -0.637,0.925 l 0.374,0.214 0.084,0.047 c 0.115,0.065 0.231,0.129 0.348,0.193 l 0.034,0.019 q 0.42,0.23 0.862,0.456 a 8.493,8.493 0 0 0 0.283,-1.114 z" />
  </g>
  <circle
     cx="4.3769999"
     cy="8.6809998"
     r="2.7320001"
     id="circle20"
     style="fill:#f2f2f2" />
  <circle
     cx="10.135"
     cy="13.67"
     r="1.775"
     id="circle22"
     style="fill:#f2f2f2" />
   </symbol>
</svg>
